G04 #@! TF.FileFunction,Legend,Top*
%FSLAX46Y46*%
G04 Gerber Fmt 4.6, Leading zero omitted, Abs format (unit mm)*
G04 Created by KiCad (PCBNEW 4.0.7) date Sat Nov 18 23:45:17 2017*
%MOMM*%
%LPD*%
G01*
G04 APERTURE LIST*
%ADD10C,0.100000*%
%ADD11C,0.150000*%
%ADD12C,0.120000*%
G04 APERTURE END LIST*
D10*
D11*
X48972152Y-15670381D02*
X49543581Y-15670381D01*
X49257866Y-16670381D02*
X49257866Y-15670381D01*
X50448343Y-16670381D02*
X50115009Y-16194190D01*
X49876914Y-16670381D02*
X49876914Y-15670381D01*
X50257867Y-15670381D01*
X50353105Y-15718000D01*
X50400724Y-15765619D01*
X50448343Y-15860857D01*
X50448343Y-16003714D01*
X50400724Y-16098952D01*
X50353105Y-16146571D01*
X50257867Y-16194190D01*
X49876914Y-16194190D01*
X50829295Y-16384667D02*
X51305486Y-16384667D01*
X50734057Y-16670381D02*
X51067390Y-15670381D01*
X51400724Y-16670381D01*
X52305486Y-16575143D02*
X52257867Y-16622762D01*
X52115010Y-16670381D01*
X52019772Y-16670381D01*
X51876914Y-16622762D01*
X51781676Y-16527524D01*
X51734057Y-16432286D01*
X51686438Y-16241810D01*
X51686438Y-16098952D01*
X51734057Y-15908476D01*
X51781676Y-15813238D01*
X51876914Y-15718000D01*
X52019772Y-15670381D01*
X52115010Y-15670381D01*
X52257867Y-15718000D01*
X52305486Y-15765619D01*
X52734057Y-16670381D02*
X52734057Y-15670381D01*
X53305486Y-16670381D02*
X52876914Y-16098952D01*
X53305486Y-15670381D02*
X52734057Y-16241810D01*
X54448343Y-15622762D02*
X53591200Y-16908476D01*
X54734057Y-16622762D02*
X54876914Y-16670381D01*
X55115010Y-16670381D01*
X55210248Y-16622762D01*
X55257867Y-16575143D01*
X55305486Y-16479905D01*
X55305486Y-16384667D01*
X55257867Y-16289429D01*
X55210248Y-16241810D01*
X55115010Y-16194190D01*
X54924533Y-16146571D01*
X54829295Y-16098952D01*
X54781676Y-16051333D01*
X54734057Y-15956095D01*
X54734057Y-15860857D01*
X54781676Y-15765619D01*
X54829295Y-15718000D01*
X54924533Y-15670381D01*
X55162629Y-15670381D01*
X55305486Y-15718000D01*
X55686438Y-16622762D02*
X55829295Y-16670381D01*
X56067391Y-16670381D01*
X56162629Y-16622762D01*
X56210248Y-16575143D01*
X56257867Y-16479905D01*
X56257867Y-16384667D01*
X56210248Y-16289429D01*
X56162629Y-16241810D01*
X56067391Y-16194190D01*
X55876914Y-16146571D01*
X55781676Y-16098952D01*
X55734057Y-16051333D01*
X55686438Y-15956095D01*
X55686438Y-15860857D01*
X55734057Y-15765619D01*
X55781676Y-15718000D01*
X55876914Y-15670381D01*
X56115010Y-15670381D01*
X56257867Y-15718000D01*
X57448343Y-16289429D02*
X58210248Y-16289429D01*
X57829296Y-16670381D02*
X57829296Y-15908476D01*
X59448343Y-16670381D02*
X59448343Y-15670381D01*
X59829296Y-15670381D01*
X59924534Y-15718000D01*
X59972153Y-15765619D01*
X60019772Y-15860857D01*
X60019772Y-16003714D01*
X59972153Y-16098952D01*
X59924534Y-16146571D01*
X59829296Y-16194190D01*
X59448343Y-16194190D01*
X60972153Y-15718000D02*
X60876915Y-15670381D01*
X60734058Y-15670381D01*
X60591200Y-15718000D01*
X60495962Y-15813238D01*
X60448343Y-15908476D01*
X60400724Y-16098952D01*
X60400724Y-16241810D01*
X60448343Y-16432286D01*
X60495962Y-16527524D01*
X60591200Y-16622762D01*
X60734058Y-16670381D01*
X60829296Y-16670381D01*
X60972153Y-16622762D01*
X61019772Y-16575143D01*
X61019772Y-16241810D01*
X60829296Y-16241810D01*
X61638819Y-15670381D02*
X61829296Y-15670381D01*
X61924534Y-15718000D01*
X62019772Y-15813238D01*
X62067391Y-16003714D01*
X62067391Y-16337048D01*
X62019772Y-16527524D01*
X61924534Y-16622762D01*
X61829296Y-16670381D01*
X61638819Y-16670381D01*
X61543581Y-16622762D01*
X61448343Y-16527524D01*
X61400724Y-16337048D01*
X61400724Y-16003714D01*
X61448343Y-15813238D01*
X61543581Y-15718000D01*
X61638819Y-15670381D01*
X62686438Y-15670381D02*
X62876915Y-15670381D01*
X62972153Y-15718000D01*
X63067391Y-15813238D01*
X63115010Y-16003714D01*
X63115010Y-16337048D01*
X63067391Y-16527524D01*
X62972153Y-16622762D01*
X62876915Y-16670381D01*
X62686438Y-16670381D01*
X62591200Y-16622762D01*
X62495962Y-16527524D01*
X62448343Y-16337048D01*
X62448343Y-16003714D01*
X62495962Y-15813238D01*
X62591200Y-15718000D01*
X62686438Y-15670381D01*
X63543581Y-16670381D02*
X63543581Y-15670381D01*
X63781676Y-15670381D01*
X63924534Y-15718000D01*
X64019772Y-15813238D01*
X64067391Y-15908476D01*
X64115010Y-16098952D01*
X64115010Y-16241810D01*
X64067391Y-16432286D01*
X64019772Y-16527524D01*
X63924534Y-16622762D01*
X63781676Y-16670381D01*
X63543581Y-16670381D01*
X44589772Y-16721181D02*
X44256438Y-16244990D01*
X44018343Y-16721181D02*
X44018343Y-15721181D01*
X44399296Y-15721181D01*
X44494534Y-15768800D01*
X44542153Y-15816419D01*
X44589772Y-15911657D01*
X44589772Y-16054514D01*
X44542153Y-16149752D01*
X44494534Y-16197371D01*
X44399296Y-16244990D01*
X44018343Y-16244990D01*
X45018343Y-16197371D02*
X45351677Y-16197371D01*
X45494534Y-16721181D02*
X45018343Y-16721181D01*
X45018343Y-15721181D01*
X45494534Y-15721181D01*
X46256439Y-16197371D02*
X45923105Y-16197371D01*
X45923105Y-16721181D02*
X45923105Y-15721181D01*
X46399296Y-15721181D01*
X40478153Y-21445581D02*
X39906724Y-21445581D01*
X40192438Y-21445581D02*
X40192438Y-20445581D01*
X40097200Y-20588438D01*
X40001962Y-20683676D01*
X39906724Y-20731295D01*
X40763867Y-20445581D02*
X41097200Y-21445581D01*
X41430534Y-20445581D01*
X41906724Y-20874152D02*
X41811486Y-20826533D01*
X41763867Y-20778914D01*
X41716248Y-20683676D01*
X41716248Y-20636057D01*
X41763867Y-20540819D01*
X41811486Y-20493200D01*
X41906724Y-20445581D01*
X42097201Y-20445581D01*
X42192439Y-20493200D01*
X42240058Y-20540819D01*
X42287677Y-20636057D01*
X42287677Y-20683676D01*
X42240058Y-20778914D01*
X42192439Y-20826533D01*
X42097201Y-20874152D01*
X41906724Y-20874152D01*
X41811486Y-20921771D01*
X41763867Y-20969390D01*
X41716248Y-21064629D01*
X41716248Y-21255105D01*
X41763867Y-21350343D01*
X41811486Y-21397962D01*
X41906724Y-21445581D01*
X42097201Y-21445581D01*
X42192439Y-21397962D01*
X42240058Y-21350343D01*
X42287677Y-21255105D01*
X42287677Y-21064629D01*
X42240058Y-20969390D01*
X42192439Y-20921771D01*
X42097201Y-20874152D01*
X40376553Y-18803981D02*
X39805124Y-18803981D01*
X40090838Y-18803981D02*
X40090838Y-17803981D01*
X39995600Y-17946838D01*
X39900362Y-18042076D01*
X39805124Y-18089695D01*
X40662267Y-17803981D02*
X40995600Y-18803981D01*
X41328934Y-17803981D01*
X41852743Y-17803981D02*
X41947982Y-17803981D01*
X42043220Y-17851600D01*
X42090839Y-17899219D01*
X42138458Y-17994457D01*
X42186077Y-18184933D01*
X42186077Y-18423029D01*
X42138458Y-18613505D01*
X42090839Y-18708743D01*
X42043220Y-18756362D01*
X41947982Y-18803981D01*
X41852743Y-18803981D01*
X41757505Y-18756362D01*
X41709886Y-18708743D01*
X41662267Y-18613505D01*
X41614648Y-18423029D01*
X41614648Y-18184933D01*
X41662267Y-17994457D01*
X41709886Y-17899219D01*
X41757505Y-17851600D01*
X41852743Y-17803981D01*
X42052881Y-23877643D02*
X42100500Y-23925262D01*
X42052881Y-23972881D01*
X42005262Y-23925262D01*
X42052881Y-23877643D01*
X42052881Y-23972881D01*
X41862405Y-23020500D02*
X41957643Y-22972881D01*
X42195739Y-22972881D01*
X42290977Y-23020500D01*
X42338596Y-23115738D01*
X42338596Y-23210976D01*
X42290977Y-23306214D01*
X42243358Y-23353833D01*
X42148119Y-23401452D01*
X42100500Y-23449071D01*
X42052881Y-23544310D01*
X42052881Y-23591929D01*
X39354191Y-17127581D02*
X39354191Y-16127581D01*
X39354191Y-16603771D02*
X39925620Y-16603771D01*
X39925620Y-17127581D02*
X39925620Y-16127581D01*
X40401810Y-17127581D02*
X40401810Y-16127581D01*
X31853215Y-23972881D02*
X31377024Y-23972881D01*
X31377024Y-22972881D01*
X32377024Y-22972881D02*
X32567501Y-22972881D01*
X32662739Y-23020500D01*
X32757977Y-23115738D01*
X32805596Y-23306214D01*
X32805596Y-23639548D01*
X32757977Y-23830024D01*
X32662739Y-23925262D01*
X32567501Y-23972881D01*
X32377024Y-23972881D01*
X32281786Y-23925262D01*
X32186548Y-23830024D01*
X32138929Y-23639548D01*
X32138929Y-23306214D01*
X32186548Y-23115738D01*
X32281786Y-23020500D01*
X32377024Y-22972881D01*
X32274191Y-16797381D02*
X32274191Y-15797381D01*
X32607525Y-16511667D01*
X32940858Y-15797381D01*
X32940858Y-16797381D01*
X33369429Y-16511667D02*
X33845620Y-16511667D01*
X33274191Y-16797381D02*
X33607524Y-15797381D01*
X33940858Y-16797381D01*
X34845620Y-16797381D02*
X34512286Y-16321190D01*
X34274191Y-16797381D02*
X34274191Y-15797381D01*
X34655144Y-15797381D01*
X34750382Y-15845000D01*
X34798001Y-15892619D01*
X34845620Y-15987857D01*
X34845620Y-16130714D01*
X34798001Y-16225952D01*
X34750382Y-16273571D01*
X34655144Y-16321190D01*
X34274191Y-16321190D01*
X35798001Y-15845000D02*
X35702763Y-15797381D01*
X35559906Y-15797381D01*
X35417048Y-15845000D01*
X35321810Y-15940238D01*
X35274191Y-16035476D01*
X35226572Y-16225952D01*
X35226572Y-16368810D01*
X35274191Y-16559286D01*
X35321810Y-16654524D01*
X35417048Y-16749762D01*
X35559906Y-16797381D01*
X35655144Y-16797381D01*
X35798001Y-16749762D01*
X35845620Y-16702143D01*
X35845620Y-16368810D01*
X35655144Y-16368810D01*
X36274191Y-16797381D02*
X36274191Y-15797381D01*
X36750381Y-16797381D02*
X36750381Y-15797381D01*
X37321810Y-16797381D01*
X37321810Y-15797381D01*
X24590452Y-21956881D02*
X24780929Y-21956881D01*
X24876167Y-22004500D01*
X24971405Y-22099738D01*
X25019024Y-22290214D01*
X25019024Y-22623548D01*
X24971405Y-22814024D01*
X24876167Y-22909262D01*
X24780929Y-22956881D01*
X24590452Y-22956881D01*
X24495214Y-22909262D01*
X24399976Y-22814024D01*
X24352357Y-22623548D01*
X24352357Y-22290214D01*
X24399976Y-22099738D01*
X24495214Y-22004500D01*
X24590452Y-21956881D01*
X25447595Y-22956881D02*
X25447595Y-21956881D01*
X26019024Y-22956881D01*
X26019024Y-21956881D01*
X24193619Y-19289881D02*
X24384096Y-19289881D01*
X24479334Y-19337500D01*
X24574572Y-19432738D01*
X24622191Y-19623214D01*
X24622191Y-19956548D01*
X24574572Y-20147024D01*
X24479334Y-20242262D01*
X24384096Y-20289881D01*
X24193619Y-20289881D01*
X24098381Y-20242262D01*
X24003143Y-20147024D01*
X23955524Y-19956548D01*
X23955524Y-19623214D01*
X24003143Y-19432738D01*
X24098381Y-19337500D01*
X24193619Y-19289881D01*
X25384096Y-19766071D02*
X25050762Y-19766071D01*
X25050762Y-20289881D02*
X25050762Y-19289881D01*
X25526953Y-19289881D01*
X26241239Y-19766071D02*
X25907905Y-19766071D01*
X25907905Y-20289881D02*
X25907905Y-19289881D01*
X26384096Y-19289881D01*
X27328929Y-15479881D02*
X27567024Y-16479881D01*
X27757501Y-15765595D01*
X27947977Y-16479881D01*
X28186072Y-15479881D01*
X28567024Y-16479881D02*
X28567024Y-15479881D01*
X28947977Y-15479881D01*
X29043215Y-15527500D01*
X29090834Y-15575119D01*
X29138453Y-15670357D01*
X29138453Y-15813214D01*
X29090834Y-15908452D01*
X29043215Y-15956071D01*
X28947977Y-16003690D01*
X28567024Y-16003690D01*
X17320095Y-16416381D02*
X17320095Y-15416381D01*
X17748666Y-15511619D02*
X17796285Y-15464000D01*
X17891523Y-15416381D01*
X18129619Y-15416381D01*
X18224857Y-15464000D01*
X18272476Y-15511619D01*
X18320095Y-15606857D01*
X18320095Y-15702095D01*
X18272476Y-15844952D01*
X17701047Y-16416381D01*
X18320095Y-16416381D01*
X19320095Y-16321143D02*
X19272476Y-16368762D01*
X19129619Y-16416381D01*
X19034381Y-16416381D01*
X18891523Y-16368762D01*
X18796285Y-16273524D01*
X18748666Y-16178286D01*
X18701047Y-15987810D01*
X18701047Y-15844952D01*
X18748666Y-15654476D01*
X18796285Y-15559238D01*
X18891523Y-15464000D01*
X19034381Y-15416381D01*
X19129619Y-15416381D01*
X19272476Y-15464000D01*
X19320095Y-15511619D01*
X20510571Y-16035429D02*
X21272476Y-16035429D01*
X20891524Y-16416381D02*
X20891524Y-15654476D01*
X23082000Y-16321143D02*
X23034381Y-16368762D01*
X22891524Y-16416381D01*
X22796286Y-16416381D01*
X22653428Y-16368762D01*
X22558190Y-16273524D01*
X22510571Y-16178286D01*
X22462952Y-15987810D01*
X22462952Y-15844952D01*
X22510571Y-15654476D01*
X22558190Y-15559238D01*
X22653428Y-15464000D01*
X22796286Y-15416381D01*
X22891524Y-15416381D01*
X23034381Y-15464000D01*
X23082000Y-15511619D01*
X23986762Y-16416381D02*
X23510571Y-16416381D01*
X23510571Y-15416381D01*
X24320095Y-16416381D02*
X24320095Y-15416381D01*
X24891524Y-16416381D02*
X24462952Y-15844952D01*
X24891524Y-15416381D02*
X24320095Y-15987810D01*
D12*
X32000000Y-35251900D02*
X32000000Y-37251900D01*
X34040000Y-37251900D02*
X34040000Y-35251900D01*
X19856000Y-34585400D02*
X19856000Y-36585400D01*
X22816000Y-36585400D02*
X22816000Y-34585400D01*
X55387500Y-31517400D02*
X53387500Y-31517400D01*
X53387500Y-33557400D02*
X55387500Y-33557400D01*
X53804000Y-48111000D02*
X53804000Y-46111000D01*
X50844000Y-46111000D02*
X50844000Y-48111000D01*
X53892000Y-39125900D02*
X53892000Y-41125900D01*
X56852000Y-41125900D02*
X56852000Y-39125900D01*
X49828000Y-39125900D02*
X49828000Y-41125900D01*
X52788000Y-41125900D02*
X52788000Y-39125900D01*
X48327500Y-48301400D02*
X48327500Y-46301400D01*
X46287500Y-46301400D02*
X46287500Y-48301400D01*
X45279500Y-48301400D02*
X45279500Y-46301400D01*
X43239500Y-46301400D02*
X43239500Y-48301400D01*
X26737000Y-24850400D02*
X29397000Y-24850400D01*
X26737000Y-19710400D02*
X26737000Y-24850400D01*
X29397000Y-19710400D02*
X29397000Y-24850400D01*
X26737000Y-19710400D02*
X29397000Y-19710400D01*
X26737000Y-18440400D02*
X26737000Y-17110400D01*
X26737000Y-17110400D02*
X28067000Y-17110400D01*
X31182000Y-17110400D02*
X31182000Y-22310400D01*
X36322000Y-17110400D02*
X31182000Y-17110400D01*
X38922000Y-22310400D02*
X31182000Y-22310400D01*
X36322000Y-17110400D02*
X36322000Y-19710400D01*
X36322000Y-19710400D02*
X38922000Y-19710400D01*
X38922000Y-19710400D02*
X38922000Y-22310400D01*
X37592000Y-17110400D02*
X38922000Y-17110400D01*
X38922000Y-17110400D02*
X38922000Y-18440400D01*
X60442800Y-39595200D02*
X63102800Y-39595200D01*
X60442800Y-34455200D02*
X60442800Y-39595200D01*
X63102800Y-34455200D02*
X63102800Y-39595200D01*
X60442800Y-34455200D02*
X63102800Y-34455200D01*
X60442800Y-33185200D02*
X60442800Y-31855200D01*
X60442800Y-31855200D02*
X61772800Y-31855200D01*
X47748500Y-17110400D02*
X42548500Y-17110400D01*
X47748500Y-22250400D02*
X47748500Y-17110400D01*
X42548500Y-24850400D02*
X42548500Y-17110400D01*
X47748500Y-22250400D02*
X45148500Y-22250400D01*
X45148500Y-22250400D02*
X45148500Y-24850400D01*
X45148500Y-24850400D02*
X42548500Y-24850400D01*
X47748500Y-23520400D02*
X47748500Y-24850400D01*
X47748500Y-24850400D02*
X46418500Y-24850400D01*
X18355000Y-26381400D02*
X18355000Y-29041400D01*
X26035000Y-26381400D02*
X18355000Y-26381400D01*
X26035000Y-29041400D02*
X18355000Y-29041400D01*
X26035000Y-26381400D02*
X26035000Y-29041400D01*
X27305000Y-26381400D02*
X28635000Y-26381400D01*
X28635000Y-26381400D02*
X28635000Y-27711400D01*
X60442800Y-30552800D02*
X63102800Y-30552800D01*
X60442800Y-25412800D02*
X60442800Y-30552800D01*
X63102800Y-25412800D02*
X63102800Y-30552800D01*
X60442800Y-25412800D02*
X63102800Y-25412800D01*
X60442800Y-24142800D02*
X60442800Y-22812800D01*
X60442800Y-22812800D02*
X61772800Y-22812800D01*
D11*
X47781500Y-29996600D02*
X47781500Y-30596600D01*
X43531500Y-36246600D02*
X43531500Y-35646600D01*
X47781500Y-36246600D02*
X47781500Y-35646600D01*
X43531500Y-29996600D02*
X44131500Y-29996600D01*
X43531500Y-36246600D02*
X44131500Y-36246600D01*
X47781500Y-36246600D02*
X47181500Y-36246600D01*
X47781500Y-29996600D02*
X47181500Y-29996600D01*
D12*
X61655000Y-41494400D02*
X58995000Y-41494400D01*
X61655000Y-46634400D02*
X61655000Y-41494400D01*
X58995000Y-46634400D02*
X58995000Y-41494400D01*
X61655000Y-46634400D02*
X58995000Y-46634400D01*
X61655000Y-47904400D02*
X61655000Y-49234400D01*
X61655000Y-49234400D02*
X60325000Y-49234400D01*
X55507000Y-23178400D02*
X54507000Y-23178400D01*
X54507000Y-24878400D02*
X55507000Y-24878400D01*
X49935000Y-22147900D02*
X50935000Y-22147900D01*
X50935000Y-20447900D02*
X49935000Y-20447900D01*
X50585000Y-26719400D02*
X50585000Y-27719400D01*
X52285000Y-27719400D02*
X52285000Y-26719400D01*
X47713000Y-27846400D02*
X47713000Y-26846400D01*
X46013000Y-26846400D02*
X46013000Y-27846400D01*
X37093000Y-29896400D02*
X37093000Y-28696400D01*
X38853000Y-28696400D02*
X38853000Y-29896400D01*
X30679500Y-29139400D02*
X30679500Y-27939400D01*
X32439500Y-27939400D02*
X32439500Y-29139400D01*
X41185500Y-26704400D02*
X42385500Y-26704400D01*
X42385500Y-28464400D02*
X41185500Y-28464400D01*
X39805500Y-24378400D02*
X39805500Y-25578400D01*
X38045500Y-25578400D02*
X38045500Y-24378400D01*
X33473500Y-31483900D02*
X33473500Y-30283900D01*
X35233500Y-30283900D02*
X35233500Y-31483900D01*
X54454500Y-25116900D02*
X55654500Y-25116900D01*
X55654500Y-26876900D02*
X54454500Y-26876900D01*
X36140500Y-25578400D02*
X36140500Y-24378400D01*
X37900500Y-24378400D02*
X37900500Y-25578400D01*
X35995500Y-24380900D02*
X35995500Y-25580900D01*
X34235500Y-25580900D02*
X34235500Y-24380900D01*
X56035500Y-31321900D02*
X54835500Y-31321900D01*
X54835500Y-29561900D02*
X56035500Y-29561900D01*
X53388000Y-33753400D02*
X55388000Y-33753400D01*
X55388000Y-35893400D02*
X53388000Y-35893400D01*
X41710500Y-24378400D02*
X41710500Y-25578400D01*
X39950500Y-25578400D02*
X39950500Y-24378400D01*
X50346500Y-26669400D02*
X50346500Y-27869400D01*
X48586500Y-27869400D02*
X48586500Y-26669400D01*
X48586500Y-24440400D02*
X48586500Y-23240400D01*
X50346500Y-23240400D02*
X50346500Y-24440400D01*
X52315000Y-23237900D02*
X52315000Y-24437900D01*
X50555000Y-24437900D02*
X50555000Y-23237900D01*
X55507000Y-27115400D02*
X54507000Y-27115400D01*
X54507000Y-28815400D02*
X55507000Y-28815400D01*
X18418500Y-24850400D02*
X23618500Y-24850400D01*
X18418500Y-19710400D02*
X18418500Y-24850400D01*
X23618500Y-17110400D02*
X23618500Y-24850400D01*
X18418500Y-19710400D02*
X21018500Y-19710400D01*
X21018500Y-19710400D02*
X21018500Y-17110400D01*
X21018500Y-17110400D02*
X23618500Y-17110400D01*
X18418500Y-18440400D02*
X18418500Y-17110400D01*
X18418500Y-17110400D02*
X19748500Y-17110400D01*
X17677500Y-19404900D02*
X17677500Y-18404900D01*
X15977500Y-18404900D02*
X15977500Y-19404900D01*
X16069000Y-40725400D02*
X18729000Y-40725400D01*
X16069000Y-33045400D02*
X16069000Y-40725400D01*
X18729000Y-33045400D02*
X18729000Y-40725400D01*
X16069000Y-33045400D02*
X18729000Y-33045400D01*
X16069000Y-31775400D02*
X16069000Y-30445400D01*
X16069000Y-30445400D02*
X17399000Y-30445400D01*
X51451200Y-17123200D02*
X51451200Y-19783200D01*
X59131200Y-17123200D02*
X51451200Y-17123200D01*
X59131200Y-19783200D02*
X51451200Y-19783200D01*
X59131200Y-17123200D02*
X59131200Y-19783200D01*
X60401200Y-17123200D02*
X61731200Y-17123200D01*
X61731200Y-17123200D02*
X61731200Y-18453200D01*
X58651200Y-22148000D02*
X59651200Y-22148000D01*
X59651200Y-20448000D02*
X58651200Y-20448000D01*
D11*
X27201834Y-35928543D02*
X27154215Y-35976162D01*
X27011358Y-36023781D01*
X26916120Y-36023781D01*
X26773262Y-35976162D01*
X26678024Y-35880924D01*
X26630405Y-35785686D01*
X26582786Y-35595210D01*
X26582786Y-35452352D01*
X26630405Y-35261876D01*
X26678024Y-35166638D01*
X26773262Y-35071400D01*
X26916120Y-35023781D01*
X27011358Y-35023781D01*
X27154215Y-35071400D01*
X27201834Y-35119019D01*
X28154215Y-36023781D02*
X27582786Y-36023781D01*
X27868500Y-36023781D02*
X27868500Y-35023781D01*
X27773262Y-35166638D01*
X27678024Y-35261876D01*
X27582786Y-35309495D01*
X31627143Y-36418566D02*
X31674762Y-36466185D01*
X31722381Y-36609042D01*
X31722381Y-36704280D01*
X31674762Y-36847138D01*
X31579524Y-36942376D01*
X31484286Y-36989995D01*
X31293810Y-37037614D01*
X31150952Y-37037614D01*
X30960476Y-36989995D01*
X30865238Y-36942376D01*
X30770000Y-36847138D01*
X30722381Y-36704280D01*
X30722381Y-36609042D01*
X30770000Y-36466185D01*
X30817619Y-36418566D01*
X30817619Y-36037614D02*
X30770000Y-35989995D01*
X30722381Y-35894757D01*
X30722381Y-35656661D01*
X30770000Y-35561423D01*
X30817619Y-35513804D01*
X30912857Y-35466185D01*
X31008095Y-35466185D01*
X31150952Y-35513804D01*
X31722381Y-36085233D01*
X31722381Y-35466185D01*
X19443143Y-35752066D02*
X19490762Y-35799685D01*
X19538381Y-35942542D01*
X19538381Y-36037780D01*
X19490762Y-36180638D01*
X19395524Y-36275876D01*
X19300286Y-36323495D01*
X19109810Y-36371114D01*
X18966952Y-36371114D01*
X18776476Y-36323495D01*
X18681238Y-36275876D01*
X18586000Y-36180638D01*
X18538381Y-36037780D01*
X18538381Y-35942542D01*
X18586000Y-35799685D01*
X18633619Y-35752066D01*
X18538381Y-35418733D02*
X18538381Y-34799685D01*
X18919333Y-35133019D01*
X18919333Y-34990161D01*
X18966952Y-34894923D01*
X19014571Y-34847304D01*
X19109810Y-34799685D01*
X19347905Y-34799685D01*
X19443143Y-34847304D01*
X19490762Y-34894923D01*
X19538381Y-34990161D01*
X19538381Y-35275876D01*
X19490762Y-35371114D01*
X19443143Y-35418733D01*
X56221334Y-31144543D02*
X56173715Y-31192162D01*
X56030858Y-31239781D01*
X55935620Y-31239781D01*
X55792762Y-31192162D01*
X55697524Y-31096924D01*
X55649905Y-31001686D01*
X55602286Y-30811210D01*
X55602286Y-30668352D01*
X55649905Y-30477876D01*
X55697524Y-30382638D01*
X55792762Y-30287400D01*
X55935620Y-30239781D01*
X56030858Y-30239781D01*
X56173715Y-30287400D01*
X56221334Y-30335019D01*
X56792762Y-30668352D02*
X56697524Y-30620733D01*
X56649905Y-30573114D01*
X56602286Y-30477876D01*
X56602286Y-30430257D01*
X56649905Y-30335019D01*
X56697524Y-30287400D01*
X56792762Y-30239781D01*
X56983239Y-30239781D01*
X57078477Y-30287400D01*
X57126096Y-30335019D01*
X57173715Y-30430257D01*
X57173715Y-30477876D01*
X57126096Y-30573114D01*
X57078477Y-30620733D01*
X56983239Y-30668352D01*
X56792762Y-30668352D01*
X56697524Y-30715971D01*
X56649905Y-30763590D01*
X56602286Y-30858829D01*
X56602286Y-31049305D01*
X56649905Y-31144543D01*
X56697524Y-31192162D01*
X56792762Y-31239781D01*
X56983239Y-31239781D01*
X57078477Y-31192162D01*
X57126096Y-31144543D01*
X57173715Y-31049305D01*
X57173715Y-30858829D01*
X57126096Y-30763590D01*
X57078477Y-30715971D01*
X56983239Y-30668352D01*
X54931143Y-47753857D02*
X54978762Y-47801476D01*
X55026381Y-47944333D01*
X55026381Y-48039571D01*
X54978762Y-48182429D01*
X54883524Y-48277667D01*
X54788286Y-48325286D01*
X54597810Y-48372905D01*
X54454952Y-48372905D01*
X54264476Y-48325286D01*
X54169238Y-48277667D01*
X54074000Y-48182429D01*
X54026381Y-48039571D01*
X54026381Y-47944333D01*
X54074000Y-47801476D01*
X54121619Y-47753857D01*
X55026381Y-46801476D02*
X55026381Y-47372905D01*
X55026381Y-47087191D02*
X54026381Y-47087191D01*
X54169238Y-47182429D01*
X54264476Y-47277667D01*
X54312095Y-47372905D01*
X54026381Y-46468143D02*
X54026381Y-45849095D01*
X54407333Y-46182429D01*
X54407333Y-46039571D01*
X54454952Y-45944333D01*
X54502571Y-45896714D01*
X54597810Y-45849095D01*
X54835905Y-45849095D01*
X54931143Y-45896714D01*
X54978762Y-45944333D01*
X55026381Y-46039571D01*
X55026381Y-46325286D01*
X54978762Y-46420524D01*
X54931143Y-46468143D01*
X53479143Y-40768757D02*
X53526762Y-40816376D01*
X53574381Y-40959233D01*
X53574381Y-41054471D01*
X53526762Y-41197329D01*
X53431524Y-41292567D01*
X53336286Y-41340186D01*
X53145810Y-41387805D01*
X53002952Y-41387805D01*
X52812476Y-41340186D01*
X52717238Y-41292567D01*
X52622000Y-41197329D01*
X52574381Y-41054471D01*
X52574381Y-40959233D01*
X52622000Y-40816376D01*
X52669619Y-40768757D01*
X53574381Y-39816376D02*
X53574381Y-40387805D01*
X53574381Y-40102091D02*
X52574381Y-40102091D01*
X52717238Y-40197329D01*
X52812476Y-40292567D01*
X52860095Y-40387805D01*
X52907714Y-38959233D02*
X53574381Y-38959233D01*
X52526762Y-39197329D02*
X53241048Y-39435424D01*
X53241048Y-38816376D01*
X49415143Y-40768757D02*
X49462762Y-40816376D01*
X49510381Y-40959233D01*
X49510381Y-41054471D01*
X49462762Y-41197329D01*
X49367524Y-41292567D01*
X49272286Y-41340186D01*
X49081810Y-41387805D01*
X48938952Y-41387805D01*
X48748476Y-41340186D01*
X48653238Y-41292567D01*
X48558000Y-41197329D01*
X48510381Y-41054471D01*
X48510381Y-40959233D01*
X48558000Y-40816376D01*
X48605619Y-40768757D01*
X49510381Y-39816376D02*
X49510381Y-40387805D01*
X49510381Y-40102091D02*
X48510381Y-40102091D01*
X48653238Y-40197329D01*
X48748476Y-40292567D01*
X48796095Y-40387805D01*
X48510381Y-38911614D02*
X48510381Y-39387805D01*
X48986571Y-39435424D01*
X48938952Y-39387805D01*
X48891333Y-39292567D01*
X48891333Y-39054471D01*
X48938952Y-38959233D01*
X48986571Y-38911614D01*
X49081810Y-38863995D01*
X49319905Y-38863995D01*
X49415143Y-38911614D01*
X49462762Y-38959233D01*
X49510381Y-39054471D01*
X49510381Y-39292567D01*
X49462762Y-39387805D01*
X49415143Y-39435424D01*
X49414643Y-47944257D02*
X49462262Y-47991876D01*
X49509881Y-48134733D01*
X49509881Y-48229971D01*
X49462262Y-48372829D01*
X49367024Y-48468067D01*
X49271786Y-48515686D01*
X49081310Y-48563305D01*
X48938452Y-48563305D01*
X48747976Y-48515686D01*
X48652738Y-48468067D01*
X48557500Y-48372829D01*
X48509881Y-48229971D01*
X48509881Y-48134733D01*
X48557500Y-47991876D01*
X48605119Y-47944257D01*
X49509881Y-46991876D02*
X49509881Y-47563305D01*
X49509881Y-47277591D02*
X48509881Y-47277591D01*
X48652738Y-47372829D01*
X48747976Y-47468067D01*
X48795595Y-47563305D01*
X48509881Y-46134733D02*
X48509881Y-46325210D01*
X48557500Y-46420448D01*
X48605119Y-46468067D01*
X48747976Y-46563305D01*
X48938452Y-46610924D01*
X49319405Y-46610924D01*
X49414643Y-46563305D01*
X49462262Y-46515686D01*
X49509881Y-46420448D01*
X49509881Y-46229971D01*
X49462262Y-46134733D01*
X49414643Y-46087114D01*
X49319405Y-46039495D01*
X49081310Y-46039495D01*
X48986071Y-46087114D01*
X48938452Y-46134733D01*
X48890833Y-46229971D01*
X48890833Y-46420448D01*
X48938452Y-46515686D01*
X48986071Y-46563305D01*
X49081310Y-46610924D01*
X46366643Y-47944257D02*
X46414262Y-47991876D01*
X46461881Y-48134733D01*
X46461881Y-48229971D01*
X46414262Y-48372829D01*
X46319024Y-48468067D01*
X46223786Y-48515686D01*
X46033310Y-48563305D01*
X45890452Y-48563305D01*
X45699976Y-48515686D01*
X45604738Y-48468067D01*
X45509500Y-48372829D01*
X45461881Y-48229971D01*
X45461881Y-48134733D01*
X45509500Y-47991876D01*
X45557119Y-47944257D01*
X46461881Y-46991876D02*
X46461881Y-47563305D01*
X46461881Y-47277591D02*
X45461881Y-47277591D01*
X45604738Y-47372829D01*
X45699976Y-47468067D01*
X45747595Y-47563305D01*
X45461881Y-46658543D02*
X45461881Y-45991876D01*
X46461881Y-46420448D01*
X30210167Y-23734881D02*
X30210167Y-24449167D01*
X30162547Y-24592024D01*
X30067309Y-24687262D01*
X29924452Y-24734881D01*
X29829214Y-24734881D01*
X31210167Y-24734881D02*
X30638738Y-24734881D01*
X30924452Y-24734881D02*
X30924452Y-23734881D01*
X30829214Y-23877738D01*
X30733976Y-23972976D01*
X30638738Y-24020595D01*
X39374381Y-20043733D02*
X40088667Y-20043733D01*
X40231524Y-20091353D01*
X40326762Y-20186591D01*
X40374381Y-20329448D01*
X40374381Y-20424686D01*
X39469619Y-19615162D02*
X39422000Y-19567543D01*
X39374381Y-19472305D01*
X39374381Y-19234209D01*
X39422000Y-19138971D01*
X39469619Y-19091352D01*
X39564857Y-19043733D01*
X39660095Y-19043733D01*
X39802952Y-19091352D01*
X40374381Y-19662781D01*
X40374381Y-19043733D01*
X58899467Y-35939581D02*
X58899467Y-36653867D01*
X58851847Y-36796724D01*
X58756609Y-36891962D01*
X58613752Y-36939581D01*
X58518514Y-36939581D01*
X59280419Y-35939581D02*
X59899467Y-35939581D01*
X59566133Y-36320533D01*
X59708991Y-36320533D01*
X59804229Y-36368152D01*
X59851848Y-36415771D01*
X59899467Y-36511010D01*
X59899467Y-36749105D01*
X59851848Y-36844343D01*
X59804229Y-36891962D01*
X59708991Y-36939581D01*
X59423276Y-36939581D01*
X59328038Y-36891962D01*
X59280419Y-36844343D01*
X44815167Y-25302781D02*
X44815167Y-26017067D01*
X44767547Y-26159924D01*
X44672309Y-26255162D01*
X44529452Y-26302781D01*
X44434214Y-26302781D01*
X45719929Y-25636114D02*
X45719929Y-26302781D01*
X45481833Y-25255162D02*
X45243738Y-25969448D01*
X45862786Y-25969448D01*
X29087381Y-28044733D02*
X29801667Y-28044733D01*
X29944524Y-28092353D01*
X30039762Y-28187591D01*
X30087381Y-28330448D01*
X30087381Y-28425686D01*
X29087381Y-27092352D02*
X29087381Y-27568543D01*
X29563571Y-27616162D01*
X29515952Y-27568543D01*
X29468333Y-27473305D01*
X29468333Y-27235209D01*
X29515952Y-27139971D01*
X29563571Y-27092352D01*
X29658810Y-27044733D01*
X29896905Y-27044733D01*
X29992143Y-27092352D01*
X30039762Y-27139971D01*
X30087381Y-27235209D01*
X30087381Y-27473305D01*
X30039762Y-27568543D01*
X29992143Y-27616162D01*
X59089967Y-26135181D02*
X59089967Y-26849467D01*
X59042347Y-26992324D01*
X58947109Y-27087562D01*
X58804252Y-27135181D01*
X58709014Y-27135181D01*
X59709014Y-26563752D02*
X59613776Y-26516133D01*
X59566157Y-26468514D01*
X59518538Y-26373276D01*
X59518538Y-26325657D01*
X59566157Y-26230419D01*
X59613776Y-26182800D01*
X59709014Y-26135181D01*
X59899491Y-26135181D01*
X59994729Y-26182800D01*
X60042348Y-26230419D01*
X60089967Y-26325657D01*
X60089967Y-26373276D01*
X60042348Y-26468514D01*
X59994729Y-26516133D01*
X59899491Y-26563752D01*
X59709014Y-26563752D01*
X59613776Y-26611371D01*
X59566157Y-26658990D01*
X59518538Y-26754229D01*
X59518538Y-26944705D01*
X59566157Y-27039943D01*
X59613776Y-27087562D01*
X59709014Y-27135181D01*
X59899491Y-27135181D01*
X59994729Y-27087562D01*
X60042348Y-27039943D01*
X60089967Y-26944705D01*
X60089967Y-26754229D01*
X60042348Y-26658990D01*
X59994729Y-26611371D01*
X59899491Y-26563752D01*
X49985081Y-40992066D02*
X49985081Y-41468257D01*
X48985081Y-41468257D01*
X49985081Y-40134923D02*
X49985081Y-40706352D01*
X49985081Y-40420638D02*
X48985081Y-40420638D01*
X49127938Y-40515876D01*
X49223176Y-40611114D01*
X49270795Y-40706352D01*
X44894595Y-28323981D02*
X44894595Y-29133505D01*
X44942214Y-29228743D01*
X44989833Y-29276362D01*
X45085071Y-29323981D01*
X45275548Y-29323981D01*
X45370786Y-29276362D01*
X45418405Y-29228743D01*
X45466024Y-29133505D01*
X45466024Y-28323981D01*
X46466024Y-29323981D02*
X45894595Y-29323981D01*
X46180309Y-29323981D02*
X46180309Y-28323981D01*
X46085071Y-28466838D01*
X45989833Y-28562076D01*
X45894595Y-28609695D01*
X59991667Y-49686781D02*
X59991667Y-50401067D01*
X59944047Y-50543924D01*
X59848809Y-50639162D01*
X59705952Y-50686781D01*
X59610714Y-50686781D01*
X60515476Y-50686781D02*
X60705952Y-50686781D01*
X60801191Y-50639162D01*
X60848810Y-50591543D01*
X60944048Y-50448686D01*
X60991667Y-50258210D01*
X60991667Y-49877257D01*
X60944048Y-49782019D01*
X60896429Y-49734400D01*
X60801191Y-49686781D01*
X60610714Y-49686781D01*
X60515476Y-49734400D01*
X60467857Y-49782019D01*
X60420238Y-49877257D01*
X60420238Y-50115352D01*
X60467857Y-50210590D01*
X60515476Y-50258210D01*
X60610714Y-50305829D01*
X60801191Y-50305829D01*
X60896429Y-50258210D01*
X60944048Y-50210590D01*
X60991667Y-50115352D01*
X54840334Y-22885543D02*
X54792715Y-22933162D01*
X54649858Y-22980781D01*
X54554620Y-22980781D01*
X54411762Y-22933162D01*
X54316524Y-22837924D01*
X54268905Y-22742686D01*
X54221286Y-22552210D01*
X54221286Y-22409352D01*
X54268905Y-22218876D01*
X54316524Y-22123638D01*
X54411762Y-22028400D01*
X54554620Y-21980781D01*
X54649858Y-21980781D01*
X54792715Y-22028400D01*
X54840334Y-22076019D01*
X55316524Y-22980781D02*
X55507000Y-22980781D01*
X55602239Y-22933162D01*
X55649858Y-22885543D01*
X55745096Y-22742686D01*
X55792715Y-22552210D01*
X55792715Y-22171257D01*
X55745096Y-22076019D01*
X55697477Y-22028400D01*
X55602239Y-21980781D01*
X55411762Y-21980781D01*
X55316524Y-22028400D01*
X55268905Y-22076019D01*
X55221286Y-22171257D01*
X55221286Y-22409352D01*
X55268905Y-22504590D01*
X55316524Y-22552210D01*
X55411762Y-22599829D01*
X55602239Y-22599829D01*
X55697477Y-22552210D01*
X55745096Y-22504590D01*
X55792715Y-22409352D01*
X49792143Y-23155043D02*
X49744524Y-23202662D01*
X49601667Y-23250281D01*
X49506429Y-23250281D01*
X49363571Y-23202662D01*
X49268333Y-23107424D01*
X49220714Y-23012186D01*
X49173095Y-22821710D01*
X49173095Y-22678852D01*
X49220714Y-22488376D01*
X49268333Y-22393138D01*
X49363571Y-22297900D01*
X49506429Y-22250281D01*
X49601667Y-22250281D01*
X49744524Y-22297900D01*
X49792143Y-22345519D01*
X50744524Y-23250281D02*
X50173095Y-23250281D01*
X50458809Y-23250281D02*
X50458809Y-22250281D01*
X50363571Y-22393138D01*
X50268333Y-22488376D01*
X50173095Y-22535995D01*
X51363571Y-22250281D02*
X51458810Y-22250281D01*
X51554048Y-22297900D01*
X51601667Y-22345519D01*
X51649286Y-22440757D01*
X51696905Y-22631233D01*
X51696905Y-22869329D01*
X51649286Y-23059805D01*
X51601667Y-23155043D01*
X51554048Y-23202662D01*
X51458810Y-23250281D01*
X51363571Y-23250281D01*
X51268333Y-23202662D01*
X51220714Y-23155043D01*
X51173095Y-23059805D01*
X51125476Y-22869329D01*
X51125476Y-22631233D01*
X51173095Y-22440757D01*
X51220714Y-22345519D01*
X51268333Y-22297900D01*
X51363571Y-22250281D01*
X50292143Y-27862257D02*
X50339762Y-27909876D01*
X50387381Y-28052733D01*
X50387381Y-28147971D01*
X50339762Y-28290829D01*
X50244524Y-28386067D01*
X50149286Y-28433686D01*
X49958810Y-28481305D01*
X49815952Y-28481305D01*
X49625476Y-28433686D01*
X49530238Y-28386067D01*
X49435000Y-28290829D01*
X49387381Y-28147971D01*
X49387381Y-28052733D01*
X49435000Y-27909876D01*
X49482619Y-27862257D01*
X50387381Y-26909876D02*
X50387381Y-27481305D01*
X50387381Y-27195591D02*
X49387381Y-27195591D01*
X49530238Y-27290829D01*
X49625476Y-27386067D01*
X49673095Y-27481305D01*
X50387381Y-25957495D02*
X50387381Y-26528924D01*
X50387381Y-26243210D02*
X49387381Y-26243210D01*
X49530238Y-26338448D01*
X49625476Y-26433686D01*
X49673095Y-26528924D01*
X48720143Y-27989257D02*
X48767762Y-28036876D01*
X48815381Y-28179733D01*
X48815381Y-28274971D01*
X48767762Y-28417829D01*
X48672524Y-28513067D01*
X48577286Y-28560686D01*
X48386810Y-28608305D01*
X48243952Y-28608305D01*
X48053476Y-28560686D01*
X47958238Y-28513067D01*
X47863000Y-28417829D01*
X47815381Y-28274971D01*
X47815381Y-28179733D01*
X47863000Y-28036876D01*
X47910619Y-27989257D01*
X48815381Y-27036876D02*
X48815381Y-27608305D01*
X48815381Y-27322591D02*
X47815381Y-27322591D01*
X47958238Y-27417829D01*
X48053476Y-27513067D01*
X48101095Y-27608305D01*
X47910619Y-26655924D02*
X47863000Y-26608305D01*
X47815381Y-26513067D01*
X47815381Y-26274971D01*
X47863000Y-26179733D01*
X47910619Y-26132114D01*
X48005857Y-26084495D01*
X48101095Y-26084495D01*
X48243952Y-26132114D01*
X48815381Y-26703543D01*
X48815381Y-26084495D01*
X40075381Y-29463066D02*
X39599190Y-29796400D01*
X40075381Y-30034495D02*
X39075381Y-30034495D01*
X39075381Y-29653542D01*
X39123000Y-29558304D01*
X39170619Y-29510685D01*
X39265857Y-29463066D01*
X39408714Y-29463066D01*
X39503952Y-29510685D01*
X39551571Y-29558304D01*
X39599190Y-29653542D01*
X39599190Y-30034495D01*
X40075381Y-28510685D02*
X40075381Y-29082114D01*
X40075381Y-28796400D02*
X39075381Y-28796400D01*
X39218238Y-28891638D01*
X39313476Y-28986876D01*
X39361095Y-29082114D01*
X33661881Y-28706066D02*
X33185690Y-29039400D01*
X33661881Y-29277495D02*
X32661881Y-29277495D01*
X32661881Y-28896542D01*
X32709500Y-28801304D01*
X32757119Y-28753685D01*
X32852357Y-28706066D01*
X32995214Y-28706066D01*
X33090452Y-28753685D01*
X33138071Y-28801304D01*
X33185690Y-28896542D01*
X33185690Y-29277495D01*
X32757119Y-28325114D02*
X32709500Y-28277495D01*
X32661881Y-28182257D01*
X32661881Y-27944161D01*
X32709500Y-27848923D01*
X32757119Y-27801304D01*
X32852357Y-27753685D01*
X32947595Y-27753685D01*
X33090452Y-27801304D01*
X33661881Y-28372733D01*
X33661881Y-27753685D01*
X41618834Y-29686781D02*
X41285500Y-29210590D01*
X41047405Y-29686781D02*
X41047405Y-28686781D01*
X41428358Y-28686781D01*
X41523596Y-28734400D01*
X41571215Y-28782019D01*
X41618834Y-28877257D01*
X41618834Y-29020114D01*
X41571215Y-29115352D01*
X41523596Y-29162971D01*
X41428358Y-29210590D01*
X41047405Y-29210590D01*
X41952167Y-28686781D02*
X42571215Y-28686781D01*
X42237881Y-29067733D01*
X42380739Y-29067733D01*
X42475977Y-29115352D01*
X42523596Y-29162971D01*
X42571215Y-29258210D01*
X42571215Y-29496305D01*
X42523596Y-29591543D01*
X42475977Y-29639162D01*
X42380739Y-29686781D01*
X42095024Y-29686781D01*
X41999786Y-29639162D01*
X41952167Y-29591543D01*
X37727881Y-25145066D02*
X37251690Y-25478400D01*
X37727881Y-25716495D02*
X36727881Y-25716495D01*
X36727881Y-25335542D01*
X36775500Y-25240304D01*
X36823119Y-25192685D01*
X36918357Y-25145066D01*
X37061214Y-25145066D01*
X37156452Y-25192685D01*
X37204071Y-25240304D01*
X37251690Y-25335542D01*
X37251690Y-25716495D01*
X37061214Y-24287923D02*
X37727881Y-24287923D01*
X36680262Y-24526019D02*
X37394548Y-24764114D01*
X37394548Y-24145066D01*
X36455881Y-31050566D02*
X35979690Y-31383900D01*
X36455881Y-31621995D02*
X35455881Y-31621995D01*
X35455881Y-31241042D01*
X35503500Y-31145804D01*
X35551119Y-31098185D01*
X35646357Y-31050566D01*
X35789214Y-31050566D01*
X35884452Y-31098185D01*
X35932071Y-31145804D01*
X35979690Y-31241042D01*
X35979690Y-31621995D01*
X35455881Y-30145804D02*
X35455881Y-30621995D01*
X35932071Y-30669614D01*
X35884452Y-30621995D01*
X35836833Y-30526757D01*
X35836833Y-30288661D01*
X35884452Y-30193423D01*
X35932071Y-30145804D01*
X36027310Y-30098185D01*
X36265405Y-30098185D01*
X36360643Y-30145804D01*
X36408262Y-30193423D01*
X36455881Y-30288661D01*
X36455881Y-30526757D01*
X36408262Y-30621995D01*
X36360643Y-30669614D01*
X54887834Y-28099281D02*
X54554500Y-27623090D01*
X54316405Y-28099281D02*
X54316405Y-27099281D01*
X54697358Y-27099281D01*
X54792596Y-27146900D01*
X54840215Y-27194519D01*
X54887834Y-27289757D01*
X54887834Y-27432614D01*
X54840215Y-27527852D01*
X54792596Y-27575471D01*
X54697358Y-27623090D01*
X54316405Y-27623090D01*
X55744977Y-27099281D02*
X55554500Y-27099281D01*
X55459262Y-27146900D01*
X55411643Y-27194519D01*
X55316405Y-27337376D01*
X55268786Y-27527852D01*
X55268786Y-27908805D01*
X55316405Y-28004043D01*
X55364024Y-28051662D01*
X55459262Y-28099281D01*
X55649739Y-28099281D01*
X55744977Y-28051662D01*
X55792596Y-28004043D01*
X55840215Y-27908805D01*
X55840215Y-27670710D01*
X55792596Y-27575471D01*
X55744977Y-27527852D01*
X55649739Y-27480233D01*
X55459262Y-27480233D01*
X55364024Y-27527852D01*
X55316405Y-27575471D01*
X55268786Y-27670710D01*
X39122881Y-25621257D02*
X38646690Y-25954591D01*
X39122881Y-26192686D02*
X38122881Y-26192686D01*
X38122881Y-25811733D01*
X38170500Y-25716495D01*
X38218119Y-25668876D01*
X38313357Y-25621257D01*
X38456214Y-25621257D01*
X38551452Y-25668876D01*
X38599071Y-25716495D01*
X38646690Y-25811733D01*
X38646690Y-26192686D01*
X39122881Y-24668876D02*
X39122881Y-25240305D01*
X39122881Y-24954591D02*
X38122881Y-24954591D01*
X38265738Y-25049829D01*
X38360976Y-25145067D01*
X38408595Y-25240305D01*
X38122881Y-24049829D02*
X38122881Y-23954590D01*
X38170500Y-23859352D01*
X38218119Y-23811733D01*
X38313357Y-23764114D01*
X38503833Y-23716495D01*
X38741929Y-23716495D01*
X38932405Y-23764114D01*
X39027643Y-23811733D01*
X39075262Y-23859352D01*
X39122881Y-23954590D01*
X39122881Y-24049829D01*
X39075262Y-24145067D01*
X39027643Y-24192686D01*
X38932405Y-24240305D01*
X38741929Y-24287924D01*
X38503833Y-24287924D01*
X38313357Y-24240305D01*
X38218119Y-24192686D01*
X38170500Y-24145067D01*
X38122881Y-24049829D01*
X33917881Y-25623757D02*
X33441690Y-25957091D01*
X33917881Y-26195186D02*
X32917881Y-26195186D01*
X32917881Y-25814233D01*
X32965500Y-25718995D01*
X33013119Y-25671376D01*
X33108357Y-25623757D01*
X33251214Y-25623757D01*
X33346452Y-25671376D01*
X33394071Y-25718995D01*
X33441690Y-25814233D01*
X33441690Y-26195186D01*
X33917881Y-24671376D02*
X33917881Y-25242805D01*
X33917881Y-24957091D02*
X32917881Y-24957091D01*
X33060738Y-25052329D01*
X33155976Y-25147567D01*
X33203595Y-25242805D01*
X33917881Y-23718995D02*
X33917881Y-24290424D01*
X33917881Y-24004710D02*
X32917881Y-24004710D01*
X33060738Y-24099948D01*
X33155976Y-24195186D01*
X33203595Y-24290424D01*
X54792643Y-29244281D02*
X54459309Y-28768090D01*
X54221214Y-29244281D02*
X54221214Y-28244281D01*
X54602167Y-28244281D01*
X54697405Y-28291900D01*
X54745024Y-28339519D01*
X54792643Y-28434757D01*
X54792643Y-28577614D01*
X54745024Y-28672852D01*
X54697405Y-28720471D01*
X54602167Y-28768090D01*
X54221214Y-28768090D01*
X55745024Y-29244281D02*
X55173595Y-29244281D01*
X55459309Y-29244281D02*
X55459309Y-28244281D01*
X55364071Y-28387138D01*
X55268833Y-28482376D01*
X55173595Y-28529995D01*
X56078357Y-28244281D02*
X56697405Y-28244281D01*
X56364071Y-28625233D01*
X56506929Y-28625233D01*
X56602167Y-28672852D01*
X56649786Y-28720471D01*
X56697405Y-28815710D01*
X56697405Y-29053805D01*
X56649786Y-29149043D01*
X56602167Y-29196662D01*
X56506929Y-29244281D01*
X56221214Y-29244281D01*
X56125976Y-29196662D01*
X56078357Y-29149043D01*
X53745143Y-37125781D02*
X53411809Y-36649590D01*
X53173714Y-37125781D02*
X53173714Y-36125781D01*
X53554667Y-36125781D01*
X53649905Y-36173400D01*
X53697524Y-36221019D01*
X53745143Y-36316257D01*
X53745143Y-36459114D01*
X53697524Y-36554352D01*
X53649905Y-36601971D01*
X53554667Y-36649590D01*
X53173714Y-36649590D01*
X54697524Y-37125781D02*
X54126095Y-37125781D01*
X54411809Y-37125781D02*
X54411809Y-36125781D01*
X54316571Y-36268638D01*
X54221333Y-36363876D01*
X54126095Y-36411495D01*
X55554667Y-36459114D02*
X55554667Y-37125781D01*
X55316571Y-36078162D02*
X55078476Y-36792448D01*
X55697524Y-36792448D01*
X39632881Y-25621257D02*
X39156690Y-25954591D01*
X39632881Y-26192686D02*
X38632881Y-26192686D01*
X38632881Y-25811733D01*
X38680500Y-25716495D01*
X38728119Y-25668876D01*
X38823357Y-25621257D01*
X38966214Y-25621257D01*
X39061452Y-25668876D01*
X39109071Y-25716495D01*
X39156690Y-25811733D01*
X39156690Y-26192686D01*
X39632881Y-24668876D02*
X39632881Y-25240305D01*
X39632881Y-24954591D02*
X38632881Y-24954591D01*
X38775738Y-25049829D01*
X38870976Y-25145067D01*
X38918595Y-25240305D01*
X38632881Y-23764114D02*
X38632881Y-24240305D01*
X39109071Y-24287924D01*
X39061452Y-24240305D01*
X39013833Y-24145067D01*
X39013833Y-23906971D01*
X39061452Y-23811733D01*
X39109071Y-23764114D01*
X39204310Y-23716495D01*
X39442405Y-23716495D01*
X39537643Y-23764114D01*
X39585262Y-23811733D01*
X39632881Y-23906971D01*
X39632881Y-24145067D01*
X39585262Y-24240305D01*
X39537643Y-24287924D01*
X48268881Y-27912257D02*
X47792690Y-28245591D01*
X48268881Y-28483686D02*
X47268881Y-28483686D01*
X47268881Y-28102733D01*
X47316500Y-28007495D01*
X47364119Y-27959876D01*
X47459357Y-27912257D01*
X47602214Y-27912257D01*
X47697452Y-27959876D01*
X47745071Y-28007495D01*
X47792690Y-28102733D01*
X47792690Y-28483686D01*
X48268881Y-26959876D02*
X48268881Y-27531305D01*
X48268881Y-27245591D02*
X47268881Y-27245591D01*
X47411738Y-27340829D01*
X47506976Y-27436067D01*
X47554595Y-27531305D01*
X47268881Y-26102733D02*
X47268881Y-26293210D01*
X47316500Y-26388448D01*
X47364119Y-26436067D01*
X47506976Y-26531305D01*
X47697452Y-26578924D01*
X48078405Y-26578924D01*
X48173643Y-26531305D01*
X48221262Y-26483686D01*
X48268881Y-26388448D01*
X48268881Y-26197971D01*
X48221262Y-26102733D01*
X48173643Y-26055114D01*
X48078405Y-26007495D01*
X47840310Y-26007495D01*
X47745071Y-26055114D01*
X47697452Y-26102733D01*
X47649833Y-26197971D01*
X47649833Y-26388448D01*
X47697452Y-26483686D01*
X47745071Y-26531305D01*
X47840310Y-26578924D01*
X50299881Y-27150257D02*
X49823690Y-27483591D01*
X50299881Y-27721686D02*
X49299881Y-27721686D01*
X49299881Y-27340733D01*
X49347500Y-27245495D01*
X49395119Y-27197876D01*
X49490357Y-27150257D01*
X49633214Y-27150257D01*
X49728452Y-27197876D01*
X49776071Y-27245495D01*
X49823690Y-27340733D01*
X49823690Y-27721686D01*
X50299881Y-26197876D02*
X50299881Y-26769305D01*
X50299881Y-26483591D02*
X49299881Y-26483591D01*
X49442738Y-26578829D01*
X49537976Y-26674067D01*
X49585595Y-26769305D01*
X49299881Y-25864543D02*
X49299881Y-25197876D01*
X50299881Y-25626448D01*
X50237381Y-24480757D02*
X49761190Y-24814091D01*
X50237381Y-25052186D02*
X49237381Y-25052186D01*
X49237381Y-24671233D01*
X49285000Y-24575995D01*
X49332619Y-24528376D01*
X49427857Y-24480757D01*
X49570714Y-24480757D01*
X49665952Y-24528376D01*
X49713571Y-24575995D01*
X49761190Y-24671233D01*
X49761190Y-25052186D01*
X50237381Y-23528376D02*
X50237381Y-24099805D01*
X50237381Y-23814091D02*
X49237381Y-23814091D01*
X49380238Y-23909329D01*
X49475476Y-24004567D01*
X49523095Y-24099805D01*
X49665952Y-22956948D02*
X49618333Y-23052186D01*
X49570714Y-23099805D01*
X49475476Y-23147424D01*
X49427857Y-23147424D01*
X49332619Y-23099805D01*
X49285000Y-23052186D01*
X49237381Y-22956948D01*
X49237381Y-22766471D01*
X49285000Y-22671233D01*
X49332619Y-22623614D01*
X49427857Y-22575995D01*
X49475476Y-22575995D01*
X49570714Y-22623614D01*
X49618333Y-22671233D01*
X49665952Y-22766471D01*
X49665952Y-22956948D01*
X49713571Y-23052186D01*
X49761190Y-23099805D01*
X49856429Y-23147424D01*
X50046905Y-23147424D01*
X50142143Y-23099805D01*
X50189762Y-23052186D01*
X50237381Y-22956948D01*
X50237381Y-22766471D01*
X50189762Y-22671233D01*
X50142143Y-22623614D01*
X50046905Y-22575995D01*
X49856429Y-22575995D01*
X49761190Y-22623614D01*
X49713571Y-22671233D01*
X49665952Y-22766471D01*
X54840334Y-26822543D02*
X54792715Y-26870162D01*
X54649858Y-26917781D01*
X54554620Y-26917781D01*
X54411762Y-26870162D01*
X54316524Y-26774924D01*
X54268905Y-26679686D01*
X54221286Y-26489210D01*
X54221286Y-26346352D01*
X54268905Y-26155876D01*
X54316524Y-26060638D01*
X54411762Y-25965400D01*
X54554620Y-25917781D01*
X54649858Y-25917781D01*
X54792715Y-25965400D01*
X54840334Y-26013019D01*
X55745096Y-25917781D02*
X55268905Y-25917781D01*
X55221286Y-26393971D01*
X55268905Y-26346352D01*
X55364143Y-26298733D01*
X55602239Y-26298733D01*
X55697477Y-26346352D01*
X55745096Y-26393971D01*
X55792715Y-26489210D01*
X55792715Y-26727305D01*
X55745096Y-26822543D01*
X55697477Y-26870162D01*
X55602239Y-26917781D01*
X55364143Y-26917781D01*
X55268905Y-26870162D01*
X55221286Y-26822543D01*
X16684667Y-22020381D02*
X16684667Y-22734667D01*
X16637047Y-22877524D01*
X16541809Y-22972762D01*
X16398952Y-23020381D01*
X16303714Y-23020381D01*
X17589429Y-22020381D02*
X17398952Y-22020381D01*
X17303714Y-22068000D01*
X17256095Y-22115619D01*
X17160857Y-22258476D01*
X17113238Y-22448952D01*
X17113238Y-22829905D01*
X17160857Y-22925143D01*
X17208476Y-22972762D01*
X17303714Y-23020381D01*
X17494191Y-23020381D01*
X17589429Y-22972762D01*
X17637048Y-22925143D01*
X17684667Y-22829905D01*
X17684667Y-22591810D01*
X17637048Y-22496571D01*
X17589429Y-22448952D01*
X17494191Y-22401333D01*
X17303714Y-22401333D01*
X17208476Y-22448952D01*
X17160857Y-22496571D01*
X17113238Y-22591810D01*
X18934643Y-19547757D02*
X18982262Y-19595376D01*
X19029881Y-19738233D01*
X19029881Y-19833471D01*
X18982262Y-19976329D01*
X18887024Y-20071567D01*
X18791786Y-20119186D01*
X18601310Y-20166805D01*
X18458452Y-20166805D01*
X18267976Y-20119186D01*
X18172738Y-20071567D01*
X18077500Y-19976329D01*
X18029881Y-19833471D01*
X18029881Y-19738233D01*
X18077500Y-19595376D01*
X18125119Y-19547757D01*
X19029881Y-18595376D02*
X19029881Y-19166805D01*
X19029881Y-18881091D02*
X18029881Y-18881091D01*
X18172738Y-18976329D01*
X18267976Y-19071567D01*
X18315595Y-19166805D01*
X18458452Y-18023948D02*
X18410833Y-18119186D01*
X18363214Y-18166805D01*
X18267976Y-18214424D01*
X18220357Y-18214424D01*
X18125119Y-18166805D01*
X18077500Y-18119186D01*
X18029881Y-18023948D01*
X18029881Y-17833471D01*
X18077500Y-17738233D01*
X18125119Y-17690614D01*
X18220357Y-17642995D01*
X18267976Y-17642995D01*
X18363214Y-17690614D01*
X18410833Y-17738233D01*
X18458452Y-17833471D01*
X18458452Y-18023948D01*
X18506071Y-18119186D01*
X18553690Y-18166805D01*
X18648929Y-18214424D01*
X18839405Y-18214424D01*
X18934643Y-18166805D01*
X18982262Y-18119186D01*
X19029881Y-18023948D01*
X19029881Y-17833471D01*
X18982262Y-17738233D01*
X18934643Y-17690614D01*
X18839405Y-17642995D01*
X18648929Y-17642995D01*
X18553690Y-17690614D01*
X18506071Y-17738233D01*
X18458452Y-17833471D01*
X17065667Y-28897781D02*
X17065667Y-29612067D01*
X17018047Y-29754924D01*
X16922809Y-29850162D01*
X16779952Y-29897781D01*
X16684714Y-29897781D01*
X17446619Y-28897781D02*
X18113286Y-28897781D01*
X17684714Y-29897781D01*
X62183581Y-19262723D02*
X62897867Y-19262723D01*
X63040724Y-19310343D01*
X63135962Y-19405581D01*
X63183581Y-19548438D01*
X63183581Y-19643676D01*
X63183581Y-18262723D02*
X63183581Y-18834152D01*
X63183581Y-18548438D02*
X62183581Y-18548438D01*
X62326438Y-18643676D01*
X62421676Y-18738914D01*
X62469295Y-18834152D01*
X62183581Y-17643676D02*
X62183581Y-17548437D01*
X62231200Y-17453199D01*
X62278819Y-17405580D01*
X62374057Y-17357961D01*
X62564533Y-17310342D01*
X62802629Y-17310342D01*
X62993105Y-17357961D01*
X63088343Y-17405580D01*
X63135962Y-17453199D01*
X63183581Y-17548437D01*
X63183581Y-17643676D01*
X63135962Y-17738914D01*
X63088343Y-17786533D01*
X62993105Y-17834152D01*
X62802629Y-17881771D01*
X62564533Y-17881771D01*
X62374057Y-17834152D01*
X62278819Y-17786533D01*
X62231200Y-17738914D01*
X62183581Y-17643676D01*
X58508343Y-23405143D02*
X58460724Y-23452762D01*
X58317867Y-23500381D01*
X58222629Y-23500381D01*
X58079771Y-23452762D01*
X57984533Y-23357524D01*
X57936914Y-23262286D01*
X57889295Y-23071810D01*
X57889295Y-22928952D01*
X57936914Y-22738476D01*
X57984533Y-22643238D01*
X58079771Y-22548000D01*
X58222629Y-22500381D01*
X58317867Y-22500381D01*
X58460724Y-22548000D01*
X58508343Y-22595619D01*
X59460724Y-23500381D02*
X58889295Y-23500381D01*
X59175009Y-23500381D02*
X59175009Y-22500381D01*
X59079771Y-22643238D01*
X58984533Y-22738476D01*
X58889295Y-22786095D01*
X59936914Y-23500381D02*
X60127390Y-23500381D01*
X60222629Y-23452762D01*
X60270248Y-23405143D01*
X60365486Y-23262286D01*
X60413105Y-23071810D01*
X60413105Y-22690857D01*
X60365486Y-22595619D01*
X60317867Y-22548000D01*
X60222629Y-22500381D01*
X60032152Y-22500381D01*
X59936914Y-22548000D01*
X59889295Y-22595619D01*
X59841676Y-22690857D01*
X59841676Y-22928952D01*
X59889295Y-23024190D01*
X59936914Y-23071810D01*
X60032152Y-23119429D01*
X60222629Y-23119429D01*
X60317867Y-23071810D01*
X60365486Y-23024190D01*
X60413105Y-22928952D01*
M02*
