M48
;DRILL file {KiCad 4.0.7} date Sat Nov 18 23:45:23 2017
;FORMAT={-:-/ absolute / metric / decimal}
FMAT,2
METRIC,TZ
T1C0.300
T2C0.400
T3C1.000
%
G90
G05
M71
T1
X16.01Y-30.207
X16.01Y-31.35
X16.01Y-33.255
X16.01Y-34.906
X16.129Y-36.157
X16.129Y-38.443
X16.129Y-40.475
X16.137Y-41.637
X16.137Y-42.907
X16.137Y-44.177
X16.137Y-45.447
X16.137Y-46.717
X16.137Y-47.987
X16.137Y-49.257
X17.28Y-30.207
X17.407Y-41.637
X17.407Y-42.907
X17.407Y-44.177
X17.407Y-45.447
X17.407Y-46.717
X17.407Y-47.987
X17.407Y-49.257
X18.55Y-30.207
X18.669Y-36.157
X18.669Y-38.443
X18.677Y-40.367
X18.685Y-41.656
X18.685Y-42.926
X18.685Y-44.196
X18.685Y-45.466
X18.685Y-46.736
X18.685Y-48.006
X18.685Y-49.276
X18.804Y-33.255
X18.804Y-34.906
X19.185Y-32.239
X19.82Y-30.207
X19.82Y-31.35
X19.947Y-40.367
X19.955Y-41.656
X19.955Y-42.926
X19.955Y-44.196
X19.955Y-45.466
X19.955Y-46.736
X19.955Y-48.006
X19.955Y-49.276
X20.201Y-35.096
X20.201Y-36.049
X21.09Y-30.207
X21.09Y-31.35
X21.217Y-40.367
X21.225Y-41.656
X21.225Y-42.926
X21.225Y-44.196
X21.225Y-45.466
X21.225Y-46.736
X21.225Y-48.006
X21.225Y-49.276
X21.344Y-35.096
X21.344Y-36.049
X22.36Y-30.207
X22.36Y-31.35
X22.487Y-35.096
X22.487Y-36.049
X22.487Y-40.367
X22.495Y-41.656
X22.495Y-42.926
X22.495Y-44.196
X22.495Y-45.466
X22.495Y-46.736
X22.495Y-48.006
X22.495Y-49.276
X23.376Y-32.62
X23.376Y-33.89
X23.63Y-30.207
X23.63Y-31.35
X23.63Y-34.969
X23.63Y-36.176
X23.757Y-40.367
X23.765Y-41.656
X23.765Y-42.926
X23.765Y-44.196
X23.765Y-45.466
X23.765Y-46.736
X23.765Y-48.006
X23.765Y-49.276
X24.9Y-30.207
X24.9Y-31.35
X24.9Y-34.969
X24.9Y-36.176
X25.027Y-40.367
X25.035Y-41.656
X25.035Y-42.926
X25.035Y-44.196
X25.035Y-45.466
X25.035Y-46.736
X25.035Y-48.006
X25.035Y-49.276
X26.17Y-31.35
X26.17Y-34.969
X26.17Y-36.176
X26.297Y-40.367
X26.305Y-41.656
X26.305Y-42.926
X26.305Y-44.196
X26.305Y-45.466
X26.305Y-46.736
X26.305Y-48.006
X26.305Y-49.276
X27.44Y-31.54
X27.44Y-34.969
X27.44Y-36.176
X27.567Y-40.367
X27.575Y-41.656
X27.575Y-42.926
X27.575Y-44.196
X27.575Y-45.466
X27.575Y-46.736
X27.575Y-48.006
X27.575Y-49.276
X28.71Y-31.54
X28.71Y-34.969
X28.71Y-36.176
X28.837Y-40.367
X28.845Y-41.656
X28.845Y-42.926
X28.845Y-44.196
X28.845Y-45.466
X28.845Y-46.736
X28.845Y-48.006
X28.845Y-49.276
X29.98Y-31.54
X29.98Y-34.969
X29.98Y-36.176
X30.107Y-40.367
X30.115Y-41.656
X30.115Y-42.926
X30.115Y-44.196
X30.115Y-45.466
X30.115Y-46.736
X30.115Y-48.006
X30.115Y-49.276
X31.25Y-31.54
X31.25Y-34.969
X31.25Y-36.176
X31.377Y-32.62
X31.377Y-33.89
X31.377Y-40.367
X31.385Y-41.656
X31.385Y-42.926
X31.385Y-44.196
X31.385Y-45.466
X31.385Y-46.736
X31.385Y-48.006
X31.385Y-49.276
X32.647Y-40.367
X32.655Y-41.656
X32.655Y-42.926
X32.655Y-44.196
X32.655Y-45.466
X32.655Y-46.736
X32.655Y-48.006
X32.655Y-49.276
X33.718Y-28.346
X33.909Y-40.367
X33.917Y-41.656
X33.917Y-42.926
X33.917Y-44.196
X33.917Y-45.466
X33.917Y-46.736
X33.917Y-48.006
X33.917Y-49.276
X34.679Y-33.509
X34.679Y-34.906
X35.115Y-23.139
X35.314Y-34.144
X35.949Y-33.509
X35.949Y-34.906
X36.068Y-23.139
X36.068Y-26.822
X36.395Y-28.345
X36.584Y-34.207
X37.02Y-24.981
X37.219Y-33.509
X37.219Y-34.906
X37.854Y-34.207
X38.489Y-33.509
X38.489Y-34.906
X38.925Y-23.139
X39.124Y-34.207
X39.759Y-33.509
X39.759Y-34.906
X40.394Y-34.207
X41.029Y-34.906
X42.164Y-34.95
X42.559Y-30.773
X43.561Y-29.997
X44.577Y-27.5
X44.64Y-31.14
X44.64Y-31.775
X44.64Y-34.442
X44.64Y-35.077
X45.276Y-31.14
X45.276Y-31.775
X45.276Y-32.41
X45.276Y-33.045
X45.276Y-33.807
X45.276Y-34.442
X45.276Y-35.077
X45.402Y-36.347
X45.402Y-36.855
X45.609Y-25.918
X45.91Y-36.347
X45.91Y-36.855
X46.038Y-31.14
X46.038Y-31.775
X46.038Y-32.41
X46.038Y-33.045
X46.038Y-33.807
X46.038Y-34.442
X46.038Y-35.077
X46.672Y-31.14
X46.672Y-31.775
X46.672Y-34.442
X46.672Y-35.077
X48.197Y-26.95
X48.199Y-25.671
X48.368Y-30.02
X48.369Y-29.321
X48.704Y-39.649
X49.657Y-36.601
X49.657Y-39.586
X49.79Y-47.33
X49.79Y-48.6
X49.79Y-49.87
X50.557Y-32.548
X50.609Y-39.649
X50.673Y-36.538
X51.06Y-47.33
X52.006Y-39.649
X52.133Y-36.538
X52.33Y-47.33
X53.34Y-36.602
X53.34Y-37.617
X53.34Y-38.633
X53.34Y-39.649
X53.6Y-47.33
X54.419Y-32.537
X54.61Y-39.649
X54.673Y-36.538
X54.87Y-47.33
X54.87Y-48.6
X54.87Y-49.87
X56.07Y-39.649
X56.14Y-48.6
X56.14Y-49.87
X56.959Y-27.965
X57.41Y-48.6
X57.41Y-49.87
X57.912Y-38.824
X57.975Y-36.602
X58.68Y-47.33
X58.68Y-48.6
X58.68Y-49.87
X59.95Y-49.87
X61.22Y-49.87
X62.49Y-47.33
X62.49Y-48.6
X62.49Y-49.87
X63.76Y-47.33
X63.76Y-48.6
X63.76Y-49.87
T2
X57.628Y-26.016
T3
X17.399Y-31.775
X17.399Y-34.315
X17.399Y-36.855
X17.399Y-39.395
X19.685Y-27.711
X19.748Y-18.44
X19.748Y-20.98
X19.748Y-23.52
X22.225Y-27.711
X22.288Y-18.44
X22.288Y-20.98
X22.288Y-23.52
X24.765Y-27.711
X27.305Y-27.711
X28.067Y-18.44
X28.067Y-20.98
X28.067Y-23.52
X32.512Y-18.44
X32.512Y-20.98
X35.052Y-18.44
X35.052Y-20.98
X37.592Y-18.44
X37.592Y-20.98
X43.878Y-18.44
X43.878Y-20.98
X43.878Y-23.52
X46.418Y-18.44
X46.418Y-20.98
X46.418Y-23.52
X52.781Y-18.453
X55.321Y-18.453
X57.861Y-18.453
X60.325Y-42.824
X60.325Y-45.364
X60.325Y-47.904
X60.401Y-18.453
X61.773Y-24.143
X61.773Y-26.683
X61.773Y-29.223
X61.773Y-33.185
X61.773Y-35.725
X61.773Y-38.265
T0
M30
